Coordinates
version=1
nRows=43
nColumns=12
inDegrees=yes

Units are S.I. units (second, meters, Newtons, ...)
Angles are in degrees

endheader
time	SC_y	SC_z	SC_x	AC_y	AC_z	AC_x	GH_y	GH_z	GH_yy	EL_x	PS_y
       0.0              -36.39         -4.382          29.25          53.14         -12.36          5.707          15.48         -8.356          144.6          71.74          71.58
   0.03276              -36.39         -4.376          29.25          53.14         -12.36          5.706          15.46         -8.343          144.6          71.73          71.58
   0.06552              -36.39         -4.369          29.24          53.14         -12.36          5.705          15.43         -8.329          144.6          71.72          71.58
   0.09829              -36.39         -4.362          29.24          53.14         -12.36          5.704          15.41         -8.314          144.6          71.71          71.58
     0.131              -36.39         -4.354          29.24          53.14         -12.36          5.703          15.38         -8.298          144.6           71.7          71.58
    0.1638              -36.38         -4.346          29.23          53.14         -12.36          5.702          15.35         -8.281          144.5          71.69          71.58
    0.1966              -36.38         -4.337          29.22          53.14         -12.36          5.701          15.32         -8.263          144.5          71.68          71.58
    0.2293              -36.38         -4.328          29.22          53.14         -12.36            5.7          15.28         -8.243          144.5          71.67          71.58
    0.2621              -36.38         -4.317          29.21          53.14         -12.36          5.698          15.25         -8.222          144.5          71.66          71.58
    0.2949              -36.38         -4.307          29.21          53.15         -12.36          5.697          15.21           -8.2          144.5          71.65          71.58
    0.3276              -36.38         -4.295           29.2          53.15         -12.36          5.695          15.16         -8.176          144.5          71.63          71.58
    0.3604              -36.37         -4.282          29.19          53.15         -12.36          5.694          15.12          -8.15          144.5          71.62          71.59
    0.3931              -36.37         -4.269          29.18          53.15         -12.36          5.692          15.07         -8.122          144.5           71.6          71.59
    0.4259              -36.37         -4.254          29.18          53.15         -12.36           5.69          15.02         -8.092          144.5          71.59          71.59
    0.4587              -36.37         -4.239          29.17          53.15         -12.36          5.688          14.96          -8.06          144.5          71.57          71.59
    0.4914              -36.36         -4.221          29.16          53.15         -12.36          5.686           14.9         -8.025          144.4          71.55          71.59
    0.5242              -36.36         -4.203          29.14          53.15         -12.36          5.683          14.83         -7.986          144.4          71.52          71.59
     0.557              -36.36         -4.182          29.13          53.16         -12.36          5.681          14.75         -7.945          144.4           71.5          71.59
    0.5897              -36.35          -4.16          29.12          53.16         -12.36          5.678          14.67         -7.899          144.4          71.47          71.59
    0.6225              -36.35         -4.136           29.1          53.16         -12.36          5.674          14.59         -7.849          144.4          71.44           71.6
    0.6552              -36.34         -4.109          29.09          53.16         -12.36          5.671          14.49         -7.794          144.4          71.41           71.6
     0.688              -36.34          -4.08          29.07          53.16         -12.35          5.667          14.38         -7.734          144.3          71.38           71.6
    0.7208              -36.33         -4.048          29.05          53.17         -12.35          5.663          14.27         -7.667          144.3          71.34           71.6
    0.7535              -36.33         -4.012          29.03          53.17         -12.35          5.658          14.14         -7.594          144.3           71.3          71.61
    0.7863              -36.32         -3.972          29.01          53.17         -12.35          5.653          13.99         -7.512          144.2          71.25          71.61
     0.819              -36.31         -3.927          28.98          53.18         -12.35          5.647          13.83          -7.42          144.2           71.2          71.61
    0.8518               -36.3         -3.878          28.95          53.18         -12.35           5.64          13.65         -7.317          144.2          71.14          71.62
    0.8846              -36.29         -3.822          28.92          53.19         -12.35          5.633          13.44         -7.202          144.1          71.07          71.62
    0.9173              -36.28         -3.758          28.88          53.19         -12.34          5.624          13.21         -7.072          144.1           71.0          71.62
    0.9501              -36.27         -3.686          28.84           53.2         -12.34          5.615          12.95         -6.924          144.0          70.91          71.63
    0.9829              -36.25         -3.604          28.79           53.2         -12.34          5.604          12.66         -6.755          143.9          70.81          71.64
     1.016              -36.24          -3.51          28.73          53.21         -12.34          5.591          12.31         -6.561          143.8           70.7          71.64
     1.048              -36.22         -3.401          28.67          53.22         -12.33          5.577          11.92         -6.337          143.8          70.57          71.65
     1.081               -36.2         -3.275          28.59          53.23         -12.33           5.56          11.46         -6.077          143.6          70.42          71.66
     1.114              -36.17         -3.127           28.5          53.24         -12.32          5.541          10.92         -5.773          143.5          70.25          71.67
     1.147              -36.14         -2.952           28.4          53.26         -12.32          5.517          10.29         -5.414          143.4          70.04          71.68
     1.179               -36.1         -2.745          28.28          53.28         -12.31           5.49          9.537         -4.987          143.2          69.79           71.7
     1.212              -36.06         -2.497          28.13           53.3          -12.3          5.457          8.635         -4.476          143.0           69.5          71.72
     1.245              -36.01         -2.196          27.95          53.32         -12.29          5.417          7.545         -3.858          142.7          69.14          71.74
     1.278              -35.94         -1.829          27.73          53.35         -12.28          5.369          6.212         -3.103          142.4          68.71          71.77
      1.31              -35.86         -1.376          27.46          53.39         -12.26          5.309          4.567         -2.171          142.0          68.17           71.8
     1.343              -35.76        -0.8113          27.12          53.44         -12.24          5.234          2.516         -1.008          141.6           67.5          71.84
     1.376              -35.64       -0.09962           26.7           53.5         -12.22          5.139       -0.06768         0.4561          141.0          66.66          71.89
